<mxfile host="app.diagrams.net" modified="2023-11-18T02:48:35.645Z" agent="Mozilla/5.0 (Windows NT 10.0; Win64; x64) AppleWebKit/537.36 (KHTML, like Gecko) Chrome/119.0.0.0 Safari/537.36" version="22.1.3" etag="jsYwfre6T9na29z1wdyA" type="device">
  <diagram id="byW2A_Ppa4mYDYx2hdw_" name="Page-1">
    <mxGraphModel dx="2278" dy="2068" grid="1" gridSize="10" guides="1" tooltips="1" connect="1" arrows="1" fold="1" page="1" pageScale="1" pageWidth="850" pageHeight="1100" background="none" math="0" shadow="0">
      <root>
        <mxCell id="0" />
        <mxCell id="1" parent="0" />
        <mxCell id="142" value="&lt;font style=&quot;font-size: 16px;&quot;&gt;Movie&lt;/font&gt;" style="swimlane;fontStyle=1;align=center;verticalAlign=top;childLayout=stackLayout;horizontal=1;startSize=26;horizontalStack=0;resizeParent=1;resizeParentMax=0;resizeLast=0;collapsible=1;marginBottom=0;whiteSpace=wrap;html=1;" parent="1" vertex="1">
          <mxGeometry x="590" y="-440" width="180" height="300" as="geometry" />
        </mxCell>
        <mxCell id="143" value="&lt;font style=&quot;font-size: 16px;&quot;&gt;- MovieId : string&lt;br&gt;- Title : string&lt;br&gt;- Genre : string&lt;br&gt;- Summary : string&lt;br&gt;- Length : int&lt;br&gt;-Year : int&lt;br&gt;-Age : string&lt;br&gt;&lt;br&gt;- Age : int&lt;br&gt;- Years : int&lt;br&gt;&lt;/font&gt;" style="text;strokeColor=none;fillColor=none;align=left;verticalAlign=top;spacingLeft=4;spacingRight=4;overflow=hidden;rotatable=0;points=[[0,0.5],[1,0.5]];portConstraint=eastwest;whiteSpace=wrap;html=1;fontFamily=Times New Roman;" parent="142" vertex="1">
          <mxGeometry y="26" width="180" height="154" as="geometry" />
        </mxCell>
        <mxCell id="144" value="" style="line;strokeWidth=1;fillColor=none;align=left;verticalAlign=middle;spacingTop=-1;spacingLeft=3;spacingRight=3;rotatable=0;labelPosition=right;points=[];portConstraint=eastwest;strokeColor=inherit;" parent="142" vertex="1">
          <mxGeometry y="180" width="180" height="8" as="geometry" />
        </mxCell>
        <mxCell id="145" value="+ Movie() :&lt;br&gt;+&amp;nbsp; ~Movie():&lt;br&gt;+ getter():&lt;br&gt;+ setter&lt;br&gt;+ operator == :&amp;nbsp; bool&lt;br&gt;+ operator &amp;gt;&amp;gt; : istream&lt;br&gt;+ operator &amp;lt;&amp;lt; : ostream" style="text;strokeColor=none;fillColor=none;align=left;verticalAlign=top;spacingLeft=4;spacingRight=4;overflow=hidden;rotatable=0;points=[[0,0.5],[1,0.5]];portConstraint=eastwest;whiteSpace=wrap;html=1;" parent="142" vertex="1">
          <mxGeometry y="188" width="180" height="112" as="geometry" />
        </mxCell>
        <mxCell id="Y8GCnURlwGAP04hNUurw-208" value="MovieManagement" style="swimlane;fontStyle=1;align=center;verticalAlign=top;childLayout=stackLayout;horizontal=1;startSize=26;horizontalStack=0;resizeParent=1;resizeParentMax=0;resizeLast=0;collapsible=1;marginBottom=0;whiteSpace=wrap;html=1;" vertex="1" parent="1">
          <mxGeometry x="790" y="-660" width="190" height="200" as="geometry" />
        </mxCell>
        <mxCell id="Y8GCnURlwGAP04hNUurw-209" value="+ field: type" style="text;strokeColor=none;fillColor=none;align=left;verticalAlign=top;spacingLeft=4;spacingRight=4;overflow=hidden;rotatable=0;points=[[0,0.5],[1,0.5]];portConstraint=eastwest;whiteSpace=wrap;html=1;" vertex="1" parent="Y8GCnURlwGAP04hNUurw-208">
          <mxGeometry y="26" width="190" height="26" as="geometry" />
        </mxCell>
        <mxCell id="Y8GCnURlwGAP04hNUurw-210" value="" style="line;strokeWidth=1;fillColor=none;align=left;verticalAlign=middle;spacingTop=-1;spacingLeft=3;spacingRight=3;rotatable=0;labelPosition=right;points=[];portConstraint=eastwest;strokeColor=inherit;" vertex="1" parent="Y8GCnURlwGAP04hNUurw-208">
          <mxGeometry y="52" width="190" height="8" as="geometry" />
        </mxCell>
        <mxCell id="Y8GCnURlwGAP04hNUurw-211" value="+start(): void&lt;br&gt;+addMovie(movie) : void&lt;br&gt;+removeMovie(string) : void&lt;br&gt;+editMovie(string) : bool&lt;br&gt;+printListMovie() : void&lt;br&gt;+read/ write file : void&lt;br&gt;+ checkPrimaryKey (string) : bool" style="text;strokeColor=none;fillColor=none;align=left;verticalAlign=top;spacingLeft=4;spacingRight=4;overflow=hidden;rotatable=0;points=[[0,0.5],[1,0.5]];portConstraint=eastwest;whiteSpace=wrap;html=1;" vertex="1" parent="Y8GCnURlwGAP04hNUurw-208">
          <mxGeometry y="60" width="190" height="140" as="geometry" />
        </mxCell>
        <mxCell id="Y8GCnURlwGAP04hNUurw-212" value="List" style="swimlane;fontStyle=1;align=center;verticalAlign=top;childLayout=stackLayout;horizontal=1;startSize=26;horizontalStack=0;resizeParent=1;resizeParentMax=0;resizeLast=0;collapsible=1;marginBottom=0;whiteSpace=wrap;html=1;" vertex="1" parent="1">
          <mxGeometry x="1000" y="-403" width="140" height="226" as="geometry" />
        </mxCell>
        <mxCell id="Y8GCnURlwGAP04hNUurw-213" value="# (*head) : node&amp;lt;T&amp;gt;&lt;br&gt;# size : int" style="text;strokeColor=none;fillColor=none;align=left;verticalAlign=top;spacingLeft=4;spacingRight=4;overflow=hidden;rotatable=0;points=[[0,0.5],[1,0.5]];portConstraint=eastwest;whiteSpace=wrap;html=1;" vertex="1" parent="Y8GCnURlwGAP04hNUurw-212">
          <mxGeometry y="26" width="140" height="70" as="geometry" />
        </mxCell>
        <mxCell id="Y8GCnURlwGAP04hNUurw-214" value="" style="line;strokeWidth=1;fillColor=none;align=left;verticalAlign=middle;spacingTop=-1;spacingLeft=3;spacingRight=3;rotatable=0;labelPosition=right;points=[];portConstraint=eastwest;strokeColor=inherit;" vertex="1" parent="Y8GCnURlwGAP04hNUurw-212">
          <mxGeometry y="96" width="140" height="8" as="geometry" />
        </mxCell>
        <mxCell id="Y8GCnURlwGAP04hNUurw-215" value="+ list():&lt;br&gt;+ ~list():&lt;br&gt;+ insert( T data) : void&lt;br&gt;+ remove(T data) : void&lt;br&gt;+ print() : void&lt;br&gt;+ edit ( T data) : void&lt;br&gt;+ search(string data) : T*&lt;br&gt;+ getSize() : int" style="text;strokeColor=none;fillColor=none;align=left;verticalAlign=top;spacingLeft=4;spacingRight=4;overflow=hidden;rotatable=0;points=[[0,0.5],[1,0.5]];portConstraint=eastwest;whiteSpace=wrap;html=1;" vertex="1" parent="Y8GCnURlwGAP04hNUurw-212">
          <mxGeometry y="104" width="140" height="122" as="geometry" />
        </mxCell>
        <mxCell id="Y8GCnURlwGAP04hNUurw-216" value="staffManager" style="swimlane;fontStyle=0;align=center;verticalAlign=top;childLayout=stackLayout;horizontal=1;startSize=26;horizontalStack=0;resizeParent=1;resizeLast=0;collapsible=1;marginBottom=0;rounded=0;shadow=0;strokeWidth=1;" vertex="1" parent="1">
          <mxGeometry x="1290" y="-790" width="190" height="330" as="geometry">
            <mxRectangle x="340" y="380" width="170" height="26" as="alternateBounds" />
          </mxGeometry>
        </mxCell>
        <mxCell id="Y8GCnURlwGAP04hNUurw-217" value="+ staffManager()" style="text;html=1;align=left;verticalAlign=middle;resizable=0;points=[];autosize=1;strokeColor=none;fillColor=none;" vertex="1" parent="Y8GCnURlwGAP04hNUurw-216">
          <mxGeometry y="26" width="190" height="30" as="geometry" />
        </mxCell>
        <mxCell id="Y8GCnURlwGAP04hNUurw-218" value="+ ~staffManager()" style="text;html=1;align=left;verticalAlign=middle;resizable=0;points=[];autosize=1;strokeColor=none;fillColor=none;" vertex="1" parent="Y8GCnURlwGAP04hNUurw-216">
          <mxGeometry y="56" width="190" height="30" as="geometry" />
        </mxCell>
        <mxCell id="Y8GCnURlwGAP04hNUurw-219" value="+ start() : void" style="text;html=1;align=left;verticalAlign=middle;resizable=0;points=[];autosize=1;strokeColor=none;fillColor=none;" vertex="1" parent="Y8GCnURlwGAP04hNUurw-216">
          <mxGeometry y="86" width="190" height="30" as="geometry" />
        </mxCell>
        <mxCell id="Y8GCnURlwGAP04hNUurw-220" value="+ addStaff(staff s) : void&amp;nbsp;&lt;br&gt;" style="text;html=1;align=left;verticalAlign=middle;resizable=0;points=[];autosize=1;strokeColor=none;fillColor=none;" vertex="1" parent="Y8GCnURlwGAP04hNUurw-216">
          <mxGeometry y="116" width="190" height="30" as="geometry" />
        </mxCell>
        <mxCell id="Y8GCnURlwGAP04hNUurw-221" value="+&amp;nbsp; removeStaff(string id) : bool" style="text;html=1;align=left;verticalAlign=middle;resizable=0;points=[];autosize=1;strokeColor=none;fillColor=none;" vertex="1" parent="Y8GCnURlwGAP04hNUurw-216">
          <mxGeometry y="146" width="190" height="30" as="geometry" />
        </mxCell>
        <mxCell id="Y8GCnURlwGAP04hNUurw-222" value="+changePassword(string id) : bool" style="text;html=1;align=left;verticalAlign=middle;resizable=0;points=[];autosize=1;strokeColor=none;fillColor=none;" vertex="1" parent="Y8GCnURlwGAP04hNUurw-216">
          <mxGeometry y="176" width="190" height="30" as="geometry" />
        </mxCell>
        <mxCell id="Y8GCnURlwGAP04hNUurw-223" value="+ readFile() : void" style="text;html=1;align=left;verticalAlign=middle;resizable=0;points=[];autosize=1;strokeColor=none;fillColor=none;" vertex="1" parent="Y8GCnURlwGAP04hNUurw-216">
          <mxGeometry y="206" width="190" height="30" as="geometry" />
        </mxCell>
        <mxCell id="Y8GCnURlwGAP04hNUurw-224" value="+ writeFile() : void" style="text;html=1;align=left;verticalAlign=middle;resizable=0;points=[];autosize=1;strokeColor=none;fillColor=none;" vertex="1" parent="Y8GCnURlwGAP04hNUurw-216">
          <mxGeometry y="236" width="190" height="30" as="geometry" />
        </mxCell>
        <mxCell id="Y8GCnURlwGAP04hNUurw-225" value="+ checkPrimarykey(string id) : bool" style="text;html=1;align=left;verticalAlign=middle;resizable=0;points=[];autosize=1;strokeColor=none;fillColor=none;" vertex="1" parent="Y8GCnURlwGAP04hNUurw-216">
          <mxGeometry y="266" width="190" height="30" as="geometry" />
        </mxCell>
        <mxCell id="Y8GCnURlwGAP04hNUurw-226" value="+ showStaff() : void" style="text;html=1;align=left;verticalAlign=middle;resizable=0;points=[];autosize=1;strokeColor=none;fillColor=none;" vertex="1" parent="Y8GCnURlwGAP04hNUurw-216">
          <mxGeometry y="296" width="190" height="30" as="geometry" />
        </mxCell>
        <mxCell id="Y8GCnURlwGAP04hNUurw-227" value="Extends" style="endArrow=block;endSize=16;endFill=0;html=1;rounded=0;exitX=0;exitY=0.5;exitDx=0;exitDy=0;entryX=0.5;entryY=0;entryDx=0;entryDy=0;" edge="1" parent="1" source="Y8GCnURlwGAP04hNUurw-211" target="142">
          <mxGeometry width="160" relative="1" as="geometry">
            <mxPoint x="1180" y="-390" as="sourcePoint" />
            <mxPoint x="590" y="-530" as="targetPoint" />
            <Array as="points">
              <mxPoint x="680" y="-530" />
            </Array>
          </mxGeometry>
        </mxCell>
        <mxCell id="Y8GCnURlwGAP04hNUurw-228" value="Extends" style="endArrow=block;endSize=16;endFill=0;html=1;rounded=0;entryX=0.5;entryY=0;entryDx=0;entryDy=0;" edge="1" parent="1" target="Y8GCnURlwGAP04hNUurw-212">
          <mxGeometry width="160" relative="1" as="geometry">
            <mxPoint x="980" y="-530" as="sourcePoint" />
            <mxPoint x="1117.5" y="-366" as="targetPoint" />
            <Array as="points">
              <mxPoint x="1070" y="-530" />
            </Array>
          </mxGeometry>
        </mxCell>
        <mxCell id="Y8GCnURlwGAP04hNUurw-229" value="Extends" style="endArrow=block;endSize=16;endFill=0;html=1;rounded=0;entryX=0.865;entryY=-0.001;entryDx=0;entryDy=0;entryPerimeter=0;exitX=-0.03;exitY=1.235;exitDx=0;exitDy=0;exitPerimeter=0;" edge="1" parent="1" source="Y8GCnURlwGAP04hNUurw-224" target="Y8GCnURlwGAP04hNUurw-212">
          <mxGeometry width="160" relative="1" as="geometry">
            <mxPoint x="1182" y="-530" as="sourcePoint" />
            <mxPoint x="1280" y="-530" as="targetPoint" />
            <Array as="points">
              <mxPoint x="1121" y="-520" />
            </Array>
          </mxGeometry>
        </mxCell>
        <mxCell id="Y8GCnURlwGAP04hNUurw-230" value="Staff" style="swimlane;fontStyle=0;align=center;verticalAlign=top;childLayout=stackLayout;horizontal=1;startSize=26;horizontalStack=0;resizeParent=1;resizeLast=0;collapsible=1;marginBottom=0;rounded=0;shadow=0;strokeWidth=1;" vertex="1" parent="1">
          <mxGeometry x="1560" y="-403" width="200" height="276" as="geometry">
            <mxRectangle x="340" y="380" width="170" height="26" as="alternateBounds" />
          </mxGeometry>
        </mxCell>
        <mxCell id="Y8GCnURlwGAP04hNUurw-231" value="- staffId : string" style="text;html=1;align=left;verticalAlign=middle;resizable=0;points=[];autosize=1;strokeColor=none;fillColor=none;" vertex="1" parent="Y8GCnURlwGAP04hNUurw-230">
          <mxGeometry y="26" width="200" height="30" as="geometry" />
        </mxCell>
        <mxCell id="Y8GCnURlwGAP04hNUurw-232" value="" style="endArrow=none;html=1;entryX=1.011;entryY=0.989;entryDx=0;entryDy=0;entryPerimeter=0;" edge="1" parent="Y8GCnURlwGAP04hNUurw-230" target="Y8GCnURlwGAP04hNUurw-234">
          <mxGeometry width="50" height="50" relative="1" as="geometry">
            <mxPoint y="116" as="sourcePoint" />
            <mxPoint x="50" y="66" as="targetPoint" />
          </mxGeometry>
        </mxCell>
        <mxCell id="Y8GCnURlwGAP04hNUurw-233" value="- staffName : string" style="text;html=1;align=left;verticalAlign=middle;resizable=0;points=[];autosize=1;strokeColor=none;fillColor=none;" vertex="1" parent="Y8GCnURlwGAP04hNUurw-230">
          <mxGeometry y="56" width="200" height="30" as="geometry" />
        </mxCell>
        <mxCell id="Y8GCnURlwGAP04hNUurw-234" value="- revenue : long" style="text;html=1;align=left;verticalAlign=middle;resizable=0;points=[];autosize=1;strokeColor=none;fillColor=none;" vertex="1" parent="Y8GCnURlwGAP04hNUurw-230">
          <mxGeometry y="86" width="200" height="30" as="geometry" />
        </mxCell>
        <mxCell id="Y8GCnURlwGAP04hNUurw-235" value="+ getter, setter" style="text;html=1;align=left;verticalAlign=middle;resizable=0;points=[];autosize=1;strokeColor=none;fillColor=none;" vertex="1" parent="Y8GCnURlwGAP04hNUurw-230">
          <mxGeometry y="116" width="200" height="30" as="geometry" />
        </mxCell>
        <mxCell id="Y8GCnURlwGAP04hNUurw-236" value="+ staff() :&amp;nbsp;" style="text;html=1;align=left;verticalAlign=middle;resizable=0;points=[];autosize=1;strokeColor=none;fillColor=none;" vertex="1" parent="Y8GCnURlwGAP04hNUurw-230">
          <mxGeometry y="146" width="200" height="30" as="geometry" />
        </mxCell>
        <mxCell id="Y8GCnURlwGAP04hNUurw-237" value="+ ~staff() :" style="text;html=1;align=left;verticalAlign=middle;resizable=0;points=[];autosize=1;strokeColor=none;fillColor=none;" vertex="1" parent="Y8GCnURlwGAP04hNUurw-230">
          <mxGeometry y="176" width="200" height="30" as="geometry" />
        </mxCell>
        <mxCell id="Y8GCnURlwGAP04hNUurw-238" value="+ operator == (const staff&amp;amp;): bool&lt;br&gt;+ operator &amp;lt;&amp;lt; : friend ostream&amp;amp;&lt;br&gt;+ operator &amp;gt;&amp;gt; : friend istream &amp;amp;&lt;br&gt;+ operator&amp;nbsp; = :&amp;nbsp; const staff&amp;amp;" style="text;html=1;align=left;verticalAlign=middle;resizable=0;points=[];autosize=1;strokeColor=none;fillColor=none;" vertex="1" parent="Y8GCnURlwGAP04hNUurw-230">
          <mxGeometry y="206" width="200" height="70" as="geometry" />
        </mxCell>
        <mxCell id="Y8GCnURlwGAP04hNUurw-239" value="Extends" style="endArrow=block;endSize=16;endFill=0;html=1;rounded=0;entryX=0.5;entryY=0;entryDx=0;entryDy=0;exitX=1.038;exitY=0.594;exitDx=0;exitDy=0;exitPerimeter=0;" edge="1" parent="1" source="Y8GCnURlwGAP04hNUurw-224" target="Y8GCnURlwGAP04hNUurw-230">
          <mxGeometry width="160" relative="1" as="geometry">
            <mxPoint x="1270" y="-430" as="sourcePoint" />
            <mxPoint x="1430" y="-430" as="targetPoint" />
            <Array as="points">
              <mxPoint x="1660" y="-536" />
            </Array>
          </mxGeometry>
        </mxCell>
        <mxCell id="Y8GCnURlwGAP04hNUurw-242" value="" style="endArrow=diamondThin;endFill=0;endSize=24;html=1;rounded=0;exitX=0.5;exitY=1;exitDx=0;exitDy=0;" edge="1" parent="1" source="Y8GCnURlwGAP04hNUurw-216">
          <mxGeometry width="160" relative="1" as="geometry">
            <mxPoint x="1250" y="-430" as="sourcePoint" />
            <mxPoint x="1385" y="-390" as="targetPoint" />
          </mxGeometry>
        </mxCell>
        <mxCell id="Y8GCnURlwGAP04hNUurw-247" value="using" style="edgeLabel;html=1;align=center;verticalAlign=middle;resizable=0;points=[];" vertex="1" connectable="0" parent="Y8GCnURlwGAP04hNUurw-242">
          <mxGeometry x="-0.3213" y="-1" relative="1" as="geometry">
            <mxPoint as="offset" />
          </mxGeometry>
        </mxCell>
        <mxCell id="Y8GCnURlwGAP04hNUurw-243" value="AccManagement" style="swimlane;fontStyle=1;align=center;verticalAlign=top;childLayout=stackLayout;horizontal=1;startSize=26;horizontalStack=0;resizeParent=1;resizeParentMax=0;resizeLast=0;collapsible=1;marginBottom=0;whiteSpace=wrap;html=1;" vertex="1" parent="1">
          <mxGeometry x="1280" y="-390" width="210" height="170" as="geometry" />
        </mxCell>
        <mxCell id="Y8GCnURlwGAP04hNUurw-244" value="- userName : string" style="text;strokeColor=none;fillColor=none;align=left;verticalAlign=top;spacingLeft=4;spacingRight=4;overflow=hidden;rotatable=0;points=[[0,0.5],[1,0.5]];portConstraint=eastwest;whiteSpace=wrap;html=1;" vertex="1" parent="Y8GCnURlwGAP04hNUurw-243">
          <mxGeometry y="26" width="210" height="26" as="geometry" />
        </mxCell>
        <mxCell id="Y8GCnURlwGAP04hNUurw-245" value="" style="line;strokeWidth=1;fillColor=none;align=left;verticalAlign=middle;spacingTop=-1;spacingLeft=3;spacingRight=3;rotatable=0;labelPosition=right;points=[];portConstraint=eastwest;strokeColor=inherit;" vertex="1" parent="Y8GCnURlwGAP04hNUurw-243">
          <mxGeometry y="52" width="210" height="8" as="geometry" />
        </mxCell>
        <mxCell id="Y8GCnURlwGAP04hNUurw-246" value="+ getter , setter&lt;br&gt;+ checkLogin( bool&amp;amp; , string) : void&lt;br&gt;+ addAccount(staff) : void&lt;br&gt;+ removeAccount(staff) : void&lt;br&gt;+changePassword (staff) : void&amp;nbsp;" style="text;strokeColor=none;fillColor=none;align=left;verticalAlign=top;spacingLeft=4;spacingRight=4;overflow=hidden;rotatable=0;points=[[0,0.5],[1,0.5]];portConstraint=eastwest;whiteSpace=wrap;html=1;" vertex="1" parent="Y8GCnURlwGAP04hNUurw-243">
          <mxGeometry y="60" width="210" height="110" as="geometry" />
        </mxCell>
        <mxCell id="Y8GCnURlwGAP04hNUurw-250" value="" style="endArrow=diamondThin;endFill=0;endSize=24;html=1;rounded=0;entryX=0.002;entryY=0.004;entryDx=0;entryDy=0;entryPerimeter=0;exitX=1.007;exitY=0.392;exitDx=0;exitDy=0;exitPerimeter=0;" edge="1" parent="1" source="Y8GCnURlwGAP04hNUurw-246" target="Y8GCnURlwGAP04hNUurw-235">
          <mxGeometry width="160" relative="1" as="geometry">
            <mxPoint x="1310" y="-390" as="sourcePoint" />
            <mxPoint x="1470" y="-390" as="targetPoint" />
          </mxGeometry>
        </mxCell>
        <mxCell id="Y8GCnURlwGAP04hNUurw-257" value="using" style="edgeLabel;html=1;align=center;verticalAlign=middle;resizable=0;points=[];" vertex="1" connectable="0" parent="Y8GCnURlwGAP04hNUurw-250">
          <mxGeometry x="-0.1983" y="-1" relative="1" as="geometry">
            <mxPoint x="1" as="offset" />
          </mxGeometry>
        </mxCell>
        <mxCell id="Y8GCnURlwGAP04hNUurw-251" value="Extends" style="endArrow=block;endSize=16;endFill=0;html=1;rounded=0;exitX=0.478;exitY=1.033;exitDx=0;exitDy=0;exitPerimeter=0;" edge="1" parent="1" source="Y8GCnURlwGAP04hNUurw-246">
          <mxGeometry width="160" relative="1" as="geometry">
            <mxPoint x="1370" y="-210" as="sourcePoint" />
            <mxPoint x="1380" y="-120" as="targetPoint" />
          </mxGeometry>
        </mxCell>
        <mxCell id="Y8GCnURlwGAP04hNUurw-252" value="Hash" style="swimlane;fontStyle=1;align=center;verticalAlign=top;childLayout=stackLayout;horizontal=1;startSize=26;horizontalStack=0;resizeParent=1;resizeParentMax=0;resizeLast=0;collapsible=1;marginBottom=0;whiteSpace=wrap;html=1;" vertex="1" parent="1">
          <mxGeometry x="1290" y="-120" width="190" height="230" as="geometry" />
        </mxCell>
        <mxCell id="Y8GCnURlwGAP04hNUurw-253" value="- choose : string&lt;br&gt;- key[capacity][capacity] : bool" style="text;strokeColor=none;fillColor=none;align=left;verticalAlign=top;spacingLeft=4;spacingRight=4;overflow=hidden;rotatable=0;points=[[0,0.5],[1,0.5]];portConstraint=eastwest;whiteSpace=wrap;html=1;" vertex="1" parent="Y8GCnURlwGAP04hNUurw-252">
          <mxGeometry y="26" width="190" height="60" as="geometry" />
        </mxCell>
        <mxCell id="Y8GCnURlwGAP04hNUurw-254" value="" style="line;strokeWidth=1;fillColor=none;align=left;verticalAlign=middle;spacingTop=-1;spacingLeft=3;spacingRight=3;rotatable=0;labelPosition=right;points=[];portConstraint=eastwest;strokeColor=inherit;" vertex="1" parent="Y8GCnURlwGAP04hNUurw-252">
          <mxGeometry y="86" width="190" height="8" as="geometry" />
        </mxCell>
        <mxCell id="Y8GCnURlwGAP04hNUurw-255" value="+ hash():&lt;br&gt;+ ~hash() :&lt;br&gt;+ getChoose() : string&lt;br&gt;+ setChoose(string) : void&lt;br&gt;+ write , read file () : void&lt;br&gt;+ insert(string, string) : void&lt;br&gt;+ search(string, string) : void&lt;br&gt;+ removeKey(string, string) : void&lt;br&gt;+ hashFuncition(string) : void" style="text;strokeColor=none;fillColor=none;align=left;verticalAlign=top;spacingLeft=4;spacingRight=4;overflow=hidden;rotatable=0;points=[[0,0.5],[1,0.5]];portConstraint=eastwest;whiteSpace=wrap;html=1;" vertex="1" parent="Y8GCnURlwGAP04hNUurw-252">
          <mxGeometry y="94" width="190" height="136" as="geometry" />
        </mxCell>
        <mxCell id="Y8GCnURlwGAP04hNUurw-266" value="Suatchieu" style="swimlane;fontStyle=0;align=center;verticalAlign=top;childLayout=stackLayout;horizontal=1;startSize=26;horizontalStack=0;resizeParent=1;resizeLast=0;collapsible=1;marginBottom=0;rounded=0;shadow=0;strokeWidth=1;" vertex="1" parent="1">
          <mxGeometry x="2020" y="-403" width="160" height="374" as="geometry">
            <mxRectangle x="550" y="140" width="160" height="26" as="alternateBounds" />
          </mxGeometry>
        </mxCell>
        <mxCell id="Y8GCnURlwGAP04hNUurw-267" value="- stt : string" style="text;align=left;verticalAlign=top;spacingLeft=4;spacingRight=4;overflow=hidden;rotatable=0;points=[[0,0.5],[1,0.5]];portConstraint=eastwest;rounded=0;shadow=0;html=0;" vertex="1" parent="Y8GCnURlwGAP04hNUurw-266">
          <mxGeometry y="26" width="160" height="26" as="geometry" />
        </mxCell>
        <mxCell id="Y8GCnURlwGAP04hNUurw-268" value="- maphim : string" style="text;align=left;verticalAlign=top;spacingLeft=4;spacingRight=4;overflow=hidden;rotatable=0;points=[[0,0.5],[1,0.5]];portConstraint=eastwest;" vertex="1" parent="Y8GCnURlwGAP04hNUurw-266">
          <mxGeometry y="52" width="160" height="26" as="geometry" />
        </mxCell>
        <mxCell id="Y8GCnURlwGAP04hNUurw-269" value="" style="endArrow=none;html=1;entryX=1;entryY=0.2;entryDx=0;entryDy=0;entryPerimeter=0;" edge="1" parent="Y8GCnURlwGAP04hNUurw-266" target="Y8GCnURlwGAP04hNUurw-272">
          <mxGeometry width="50" height="50" relative="1" as="geometry">
            <mxPoint y="110" as="sourcePoint" />
            <mxPoint x="50" y="60" as="targetPoint" />
          </mxGeometry>
        </mxCell>
        <mxCell id="Y8GCnURlwGAP04hNUurw-270" value="- showtime : string" style="text;align=left;verticalAlign=top;spacingLeft=4;spacingRight=4;overflow=hidden;rotatable=0;points=[[0,0.5],[1,0.5]];portConstraint=eastwest;rounded=0;shadow=0;html=0;" vertex="1" parent="Y8GCnURlwGAP04hNUurw-266">
          <mxGeometry y="78" width="160" height="26" as="geometry" />
        </mxCell>
        <mxCell id="Y8GCnURlwGAP04hNUurw-271" value="" style="endArrow=none;html=1;entryX=1.011;entryY=0.228;entryDx=0;entryDy=0;entryPerimeter=0;" edge="1" parent="Y8GCnURlwGAP04hNUurw-266" target="Y8GCnURlwGAP04hNUurw-272">
          <mxGeometry width="50" height="50" relative="1" as="geometry">
            <mxPoint y="110" as="sourcePoint" />
            <mxPoint x="182" y="110.34" as="targetPoint" />
          </mxGeometry>
        </mxCell>
        <mxCell id="Y8GCnURlwGAP04hNUurw-272" value="-Suatchieu()" style="text;html=1;align=left;verticalAlign=middle;resizable=0;points=[];autosize=1;strokeColor=none;fillColor=none;" vertex="1" parent="Y8GCnURlwGAP04hNUurw-266">
          <mxGeometry y="104" width="160" height="30" as="geometry" />
        </mxCell>
        <mxCell id="Y8GCnURlwGAP04hNUurw-273" value="- ~Suatchieu()" style="text;html=1;align=left;verticalAlign=middle;resizable=0;points=[];autosize=1;strokeColor=none;fillColor=none;" vertex="1" parent="Y8GCnURlwGAP04hNUurw-266">
          <mxGeometry y="134" width="160" height="30" as="geometry" />
        </mxCell>
        <mxCell id="Y8GCnURlwGAP04hNUurw-274" value="- void setTimeBegin()" style="text;html=1;align=left;verticalAlign=middle;resizable=0;points=[];autosize=1;strokeColor=none;fillColor=none;" vertex="1" parent="Y8GCnURlwGAP04hNUurw-266">
          <mxGeometry y="164" width="160" height="30" as="geometry" />
        </mxCell>
        <mxCell id="Y8GCnURlwGAP04hNUurw-275" value="- void setStt()" style="text;html=1;align=left;verticalAlign=middle;resizable=0;points=[];autosize=1;strokeColor=none;fillColor=none;" vertex="1" parent="Y8GCnURlwGAP04hNUurw-266">
          <mxGeometry y="194" width="160" height="30" as="geometry" />
        </mxCell>
        <mxCell id="Y8GCnURlwGAP04hNUurw-276" value="- bool checkmaphim()" style="text;html=1;align=left;verticalAlign=middle;resizable=0;points=[];autosize=1;strokeColor=none;fillColor=none;" vertex="1" parent="Y8GCnURlwGAP04hNUurw-266">
          <mxGeometry y="224" width="160" height="30" as="geometry" />
        </mxCell>
        <mxCell id="Y8GCnURlwGAP04hNUurw-277" value="- static void addShowtime()" style="text;html=1;align=left;verticalAlign=middle;resizable=0;points=[];autosize=1;strokeColor=none;fillColor=none;" vertex="1" parent="Y8GCnURlwGAP04hNUurw-266">
          <mxGeometry y="254" width="160" height="30" as="geometry" />
        </mxCell>
        <mxCell id="Y8GCnURlwGAP04hNUurw-278" value="- static void printMovieShow()" style="text;html=1;align=left;verticalAlign=middle;resizable=0;points=[];autosize=1;strokeColor=none;fillColor=none;" vertex="1" parent="Y8GCnURlwGAP04hNUurw-266">
          <mxGeometry y="284" width="160" height="30" as="geometry" />
        </mxCell>
        <mxCell id="Y8GCnURlwGAP04hNUurw-279" value="- void printShowTimeInfor()" style="text;html=1;align=left;verticalAlign=middle;resizable=0;points=[];autosize=1;strokeColor=none;fillColor=none;" vertex="1" parent="Y8GCnURlwGAP04hNUurw-266">
          <mxGeometry y="314" width="160" height="30" as="geometry" />
        </mxCell>
        <mxCell id="Y8GCnURlwGAP04hNUurw-280" value="- static void printseat()" style="text;html=1;align=left;verticalAlign=middle;resizable=0;points=[];autosize=1;strokeColor=none;fillColor=none;" vertex="1" parent="Y8GCnURlwGAP04hNUurw-266">
          <mxGeometry y="344" width="160" height="30" as="geometry" />
        </mxCell>
        <mxCell id="Y8GCnURlwGAP04hNUurw-281" value="Booking" style="swimlane;fontStyle=1;align=center;verticalAlign=top;childLayout=stackLayout;horizontal=1;startSize=26;horizontalStack=0;resizeParent=1;resizeParentMax=0;resizeLast=0;collapsible=1;marginBottom=0;whiteSpace=wrap;html=1;" vertex="1" parent="1">
          <mxGeometry x="1830" y="-680" width="200" height="150" as="geometry" />
        </mxCell>
        <mxCell id="Y8GCnURlwGAP04hNUurw-282" value="+ field: type" style="text;strokeColor=none;fillColor=none;align=left;verticalAlign=top;spacingLeft=4;spacingRight=4;overflow=hidden;rotatable=0;points=[[0,0.5],[1,0.5]];portConstraint=eastwest;whiteSpace=wrap;html=1;" vertex="1" parent="Y8GCnURlwGAP04hNUurw-281">
          <mxGeometry y="26" width="200" height="26" as="geometry" />
        </mxCell>
        <mxCell id="Y8GCnURlwGAP04hNUurw-283" value="" style="line;strokeWidth=1;fillColor=none;align=left;verticalAlign=middle;spacingTop=-1;spacingLeft=3;spacingRight=3;rotatable=0;labelPosition=right;points=[];portConstraint=eastwest;strokeColor=inherit;" vertex="1" parent="Y8GCnURlwGAP04hNUurw-281">
          <mxGeometry y="52" width="200" height="8" as="geometry" />
        </mxCell>
        <mxCell id="Y8GCnURlwGAP04hNUurw-284" value="+ Datve(string) : void&lt;br&gt;+ Chonge(string) : string&lt;br&gt;+ getMovieName(string) : string&lt;br&gt;+ getMovieTime(string) : string" style="text;strokeColor=none;fillColor=none;align=left;verticalAlign=top;spacingLeft=4;spacingRight=4;overflow=hidden;rotatable=0;points=[[0,0.5],[1,0.5]];portConstraint=eastwest;whiteSpace=wrap;html=1;" vertex="1" parent="Y8GCnURlwGAP04hNUurw-281">
          <mxGeometry y="60" width="200" height="90" as="geometry" />
        </mxCell>
        <mxCell id="Y8GCnURlwGAP04hNUurw-285" value="Ticket" style="swimlane;fontStyle=0;align=center;verticalAlign=top;childLayout=stackLayout;horizontal=1;startSize=26;horizontalStack=0;resizeParent=1;resizeLast=0;collapsible=1;marginBottom=0;rounded=0;shadow=0;strokeWidth=1;" vertex="1" parent="1">
          <mxGeometry x="1800" y="-410" width="190" height="440" as="geometry">
            <mxRectangle x="550" y="140" width="160" height="26" as="alternateBounds" />
          </mxGeometry>
        </mxCell>
        <mxCell id="Y8GCnURlwGAP04hNUurw-298" value="&amp;nbsp;+Show():void" style="text;html=1;align=left;verticalAlign=middle;resizable=0;points=[];autosize=1;strokeColor=none;fillColor=none;" vertex="1" parent="Y8GCnURlwGAP04hNUurw-285">
          <mxGeometry y="26" width="190" height="30" as="geometry" />
        </mxCell>
        <mxCell id="Y8GCnURlwGAP04hNUurw-286" value="- TicketID; string" style="text;align=left;verticalAlign=top;spacingLeft=4;spacingRight=4;overflow=hidden;rotatable=0;points=[[0,0.5],[1,0.5]];portConstraint=eastwest;rounded=0;shadow=0;html=0;" vertex="1" parent="Y8GCnURlwGAP04hNUurw-285">
          <mxGeometry y="56" width="190" height="26" as="geometry" />
        </mxCell>
        <mxCell id="Y8GCnURlwGAP04hNUurw-287" value="&amp;nbsp;- CustomerName: string" style="text;html=1;align=left;verticalAlign=middle;resizable=0;points=[];autosize=1;strokeColor=none;fillColor=none;" vertex="1" parent="Y8GCnURlwGAP04hNUurw-285">
          <mxGeometry y="82" width="190" height="30" as="geometry" />
        </mxCell>
        <mxCell id="Y8GCnURlwGAP04hNUurw-288" value="- MovieName: string" style="text;align=left;verticalAlign=top;spacingLeft=4;spacingRight=4;overflow=hidden;rotatable=0;points=[[0,0.5],[1,0.5]];portConstraint=eastwest;" vertex="1" parent="Y8GCnURlwGAP04hNUurw-285">
          <mxGeometry y="112" width="190" height="26" as="geometry" />
        </mxCell>
        <mxCell id="Y8GCnURlwGAP04hNUurw-289" value="- TheatreCode: string" style="text;align=left;verticalAlign=top;spacingLeft=4;spacingRight=4;overflow=hidden;rotatable=0;points=[[0,0.5],[1,0.5]];portConstraint=eastwest;rounded=0;shadow=0;html=0;" vertex="1" parent="Y8GCnURlwGAP04hNUurw-285">
          <mxGeometry y="138" width="190" height="26" as="geometry" />
        </mxCell>
        <mxCell id="Y8GCnURlwGAP04hNUurw-290" value="- Seat: string" style="text;align=left;verticalAlign=top;spacingLeft=4;spacingRight=4;overflow=hidden;rotatable=0;points=[[0,0.5],[1,0.5]];portConstraint=eastwest;rounded=0;shadow=0;html=0;" vertex="1" parent="Y8GCnURlwGAP04hNUurw-285">
          <mxGeometry y="164" width="190" height="26" as="geometry" />
        </mxCell>
        <mxCell id="Y8GCnURlwGAP04hNUurw-291" value="- Price: int" style="text;align=left;verticalAlign=top;spacingLeft=4;spacingRight=4;overflow=hidden;rotatable=0;points=[[0,0.5],[1,0.5]];portConstraint=eastwest;" vertex="1" parent="Y8GCnURlwGAP04hNUurw-285">
          <mxGeometry y="190" width="190" height="26" as="geometry" />
        </mxCell>
        <mxCell id="Y8GCnURlwGAP04hNUurw-292" value="- BuyTime: string" style="text;align=left;verticalAlign=top;spacingLeft=4;spacingRight=4;overflow=hidden;rotatable=0;points=[[0,0.5],[1,0.5]];portConstraint=eastwest;" vertex="1" parent="Y8GCnURlwGAP04hNUurw-285">
          <mxGeometry y="216" width="190" height="26" as="geometry" />
        </mxCell>
        <mxCell id="Y8GCnURlwGAP04hNUurw-293" value="&amp;nbsp;- MovieTime: string" style="text;html=1;align=left;verticalAlign=middle;resizable=0;points=[];autosize=1;strokeColor=none;fillColor=none;" vertex="1" parent="Y8GCnURlwGAP04hNUurw-285">
          <mxGeometry y="242" width="190" height="30" as="geometry" />
        </mxCell>
        <mxCell id="Y8GCnURlwGAP04hNUurw-294" value="&amp;nbsp;- NameStaff: string" style="text;html=1;align=left;verticalAlign=middle;resizable=0;points=[];autosize=1;strokeColor=none;fillColor=none;" vertex="1" parent="Y8GCnURlwGAP04hNUurw-285">
          <mxGeometry y="272" width="190" height="30" as="geometry" />
        </mxCell>
        <mxCell id="Y8GCnURlwGAP04hNUurw-295" value="" style="line;html=1;strokeWidth=1;align=left;verticalAlign=middle;spacingTop=-1;spacingLeft=3;spacingRight=3;rotatable=0;labelPosition=right;points=[];portConstraint=eastwest;" vertex="1" parent="Y8GCnURlwGAP04hNUurw-285">
          <mxGeometry y="302" width="190" height="8" as="geometry" />
        </mxCell>
        <mxCell id="Y8GCnURlwGAP04hNUurw-296" value="&amp;nbsp;+getter():" style="text;html=1;align=left;verticalAlign=middle;resizable=0;points=[];autosize=1;strokeColor=none;fillColor=none;" vertex="1" parent="Y8GCnURlwGAP04hNUurw-285">
          <mxGeometry y="310" width="190" height="30" as="geometry" />
        </mxCell>
        <mxCell id="Y8GCnURlwGAP04hNUurw-297" value="&amp;nbsp;+setter():&amp;nbsp;" style="text;html=1;align=left;verticalAlign=middle;resizable=0;points=[];autosize=1;strokeColor=none;fillColor=none;" vertex="1" parent="Y8GCnURlwGAP04hNUurw-285">
          <mxGeometry y="340" width="190" height="30" as="geometry" />
        </mxCell>
        <mxCell id="Y8GCnURlwGAP04hNUurw-299" value="+SavetoFile(): void&lt;br&gt;+operator &amp;lt;&amp;lt; : ostream&amp;amp;&lt;br&gt;+operator &amp;gt;&amp;gt; : istream &amp;amp;&lt;br&gt;operator ==(const ticket&amp;amp;) : bool" style="text;html=1;align=left;verticalAlign=middle;resizable=0;points=[];autosize=1;strokeColor=none;fillColor=none;" vertex="1" parent="Y8GCnURlwGAP04hNUurw-285">
          <mxGeometry y="370" width="190" height="70" as="geometry" />
        </mxCell>
        <mxCell id="Y8GCnURlwGAP04hNUurw-300" value="-" style="text;html=1;align=center;verticalAlign=middle;resizable=0;points=[];autosize=1;strokeColor=none;fillColor=none;" vertex="1" parent="1">
          <mxGeometry x="2040" y="-45" width="30" height="30" as="geometry" />
        </mxCell>
        <mxCell id="Y8GCnURlwGAP04hNUurw-301" value="" style="endArrow=diamondThin;endFill=0;endSize=24;html=1;rounded=0;exitX=0.407;exitY=1;exitDx=0;exitDy=0;exitPerimeter=0;entryX=0.563;entryY=0.002;entryDx=0;entryDy=0;entryPerimeter=0;" edge="1" parent="1" source="Y8GCnURlwGAP04hNUurw-284" target="Y8GCnURlwGAP04hNUurw-285">
          <mxGeometry width="160" relative="1" as="geometry">
            <mxPoint x="1930.0000000000005" y="-530.0000000000001" as="sourcePoint" />
            <mxPoint x="1930.4" y="-413.6" as="targetPoint" />
          </mxGeometry>
        </mxCell>
        <mxCell id="Y8GCnURlwGAP04hNUurw-303" value="using" style="edgeLabel;html=1;align=center;verticalAlign=middle;resizable=0;points=[];" vertex="1" connectable="0" parent="Y8GCnURlwGAP04hNUurw-301">
          <mxGeometry x="-0.1718" y="-3" relative="1" as="geometry">
            <mxPoint as="offset" />
          </mxGeometry>
        </mxCell>
        <mxCell id="Y8GCnURlwGAP04hNUurw-308" value="" style="endArrow=diamondThin;endFill=0;endSize=24;html=1;rounded=0;exitX=1.015;exitY=0.679;exitDx=0;exitDy=0;exitPerimeter=0;entryX=0.565;entryY=0.021;entryDx=0;entryDy=0;entryPerimeter=0;" edge="1" parent="1" source="Y8GCnURlwGAP04hNUurw-284">
          <mxGeometry width="160" relative="1" as="geometry">
            <mxPoint x="2110" y="-490" as="sourcePoint" />
            <mxPoint x="2120.3999999999996" y="-400.27" as="targetPoint" />
            <Array as="points">
              <mxPoint x="2120" y="-559" />
            </Array>
          </mxGeometry>
        </mxCell>
        <mxCell id="Y8GCnURlwGAP04hNUurw-309" value="using" style="edgeLabel;html=1;align=center;verticalAlign=middle;resizable=0;points=[];" vertex="1" connectable="0" parent="Y8GCnURlwGAP04hNUurw-308">
          <mxGeometry x="0.2884" y="-2" relative="1" as="geometry">
            <mxPoint as="offset" />
          </mxGeometry>
        </mxCell>
        <mxCell id="Y8GCnURlwGAP04hNUurw-311" value="" style="endArrow=diamondThin;endFill=0;endSize=24;html=1;rounded=0;exitX=0;exitY=1.004;exitDx=0;exitDy=0;exitPerimeter=0;entryX=0.845;entryY=0.011;entryDx=0;entryDy=0;entryPerimeter=0;" edge="1" parent="1" source="Y8GCnURlwGAP04hNUurw-284" target="Y8GCnURlwGAP04hNUurw-230">
          <mxGeometry width="160" relative="1" as="geometry">
            <mxPoint x="1500" y="-340" as="sourcePoint" />
            <mxPoint x="1660" y="-340" as="targetPoint" />
            <Array as="points">
              <mxPoint x="1730" y="-530" />
            </Array>
          </mxGeometry>
        </mxCell>
        <mxCell id="Y8GCnURlwGAP04hNUurw-312" value="using" style="edgeLabel;html=1;align=center;verticalAlign=middle;resizable=0;points=[];" vertex="1" connectable="0" parent="Y8GCnURlwGAP04hNUurw-311">
          <mxGeometry x="-0.3669" y="-2" relative="1" as="geometry">
            <mxPoint x="-1" as="offset" />
          </mxGeometry>
        </mxCell>
      </root>
    </mxGraphModel>
  </diagram>
</mxfile>
